<!DOCTYPE svg PUBLIC "-//W3C//DTD SVG 1.1//EN" "http://www.w3.org/Graphics/SVG/1.1/DTD/svg11.dtd">
<!-- Uploaded to: SVG Repo, www.svgrepo.com, Transformed by: SVG Repo Mixer Tools -->
<svg fill="#FFF" height="800px" width="800px" version="1.1" id="Capa_1" xmlns="http://www.w3.org/2000/svg" xmlns:xlink="http://www.w3.org/1999/xlink" viewBox="0 0 511.999 511.999" xml:space="preserve" stroke="#FFF">
<g id="SVGRepo_bgCarrier" stroke-width="0"/>
<g id="SVGRepo_tracerCarrier" stroke-linecap="round" stroke-linejoin="round"/>
<g id="SVGRepo_iconCarrier"> <g> <g> <path d="M204.146,97.087c-1.495-3.907-5.873-5.859-9.781-4.367c-10.043,3.843-12.895,2.129-19.786-2.012 c-3.833-2.304-8.605-5.172-15.303-7.342c-21.154-6.855-34.39,9.688-40.751,17.636c-0.555,0.695-1.077,1.346-1.566,1.939 c-1.149,1.389-1.668,1.681-1.659,1.682c-0.363,0.101-1.675,0.084-2.73,0.068c-2.715-0.037-6.431-0.09-11.781,0.854 c-17.313,3.054-22.506,22.44-22.718,23.263c-1.045,4.051,1.391,8.182,5.441,9.226c0.633,0.164,1.269,0.242,1.896,0.242 c3.371,0,6.447-2.268,7.329-5.684c0.027-0.107,3.11-10.794,10.683-12.132c3.937-0.695,6.591-0.656,8.934-0.624 c5.945,0.083,10.601-0.387,16.272-7.241c0.539-0.651,1.114-1.367,1.724-2.131c7.145-8.927,13.904-16.044,24.256-12.69 c5.049,1.636,8.669,3.81,12.169,5.914c7.899,4.747,16.069,9.656,33.004,3.177C203.686,105.374,205.64,100.994,204.146,97.087z"/> </g> </g> <g> <g> <path d="M509.202,191.354l-12.114-43.506c-0.912-3.276-3.896-5.542-7.296-5.542h-18.208c-4.183,0-7.574,3.39-7.574,7.574 s3.391,7.574,7.574,7.574h12.455l7.896,28.358h-244.98l7.896-28.358h103.594h23.289h29.284c4.183,0,7.574-3.39,7.574-7.574 s-3.391-7.574-7.574-7.574h-21.71V79.541l45.952-46.118c2.949-2.96,2.945-7.748-0.01-10.703L418.782,6.252 c-1.421-1.42-3.347-2.218-5.355-2.218c-0.002,0-0.004,0-0.006,0c-2.011,0.002-3.938,0.803-5.358,2.227L353.08,61.419 c-1.415,1.42-2.21,3.343-2.21,5.347v75.54h-30.876c-1.614-10.308-7.195-23.678-20.407-23.794 c-1.149-2.052-2.158-7.501-2.784-10.887c-0.847-4.574-1.723-9.304-3.418-13.118c-4.146-9.33-11.457-9.19-14.405-8.702 c-4.742,0.795-9.651-2.178-10.522-3.815c0.228-0.314,0.77-0.892,1.831-1.599c5.878-3.918,8.79-8.526,8.654-13.697 c-0.247-9.385-9.945-15.137-22.223-22.421c-1.595-0.946-3.232-1.917-4.884-2.919c-13.681-8.292-24.607-3.129-32.584,0.64 c-3.66,1.73-6.869,3.246-9.73,3.352c-0.035-0.65-0.057-1.374-0.075-1.992c-0.212-7.207-0.568-19.271-14.256-31.473 c-13.569-12.091-25.279-12.82-32.717-11.3c-10.465,2.138-19.32,9.883-24.932,21.81c-2.617,5.561-4.708,9.396-6.41,10.034 c-2.404,0.903-8.667-0.02-17.331-1.293l-2.649-0.389c-21.341-3.108-30.724,12.832-38.264,25.645 c-3.357,5.705-6.828,11.603-11.104,15.88c-2.958,2.959-2.958,7.754,0,10.712c2.958,2.957,7.754,2.957,10.711,0 c5.641-5.642,9.611-12.387,13.448-18.91c7.727-13.127,12.259-19.912,23.022-18.336l2.632,0.386 c12.116,1.779,18.79,2.762,24.851,0.49c7.257-2.721,10.712-9.081,14.799-17.77c3.475-7.385,8.671-12.276,14.256-13.417 c7.325-1.493,14.703,3.399,19.604,7.767c8.819,7.861,9.018,14.634,9.194,20.61c0.149,5.083,0.461,15.658,13.134,16.633 c7.087,0.55,13.038-2.263,18.284-4.741c7.584-3.584,11.842-5.271,18.261-1.381c1.694,1.027,3.372,2.022,5.007,2.992 c4.807,2.852,11.761,6.977,14.196,9.524c-0.315,0.265-0.738,0.587-1.301,0.961c-7.601,5.069-10.446,12.378-7.608,19.554 c3.417,8.641,14.774,14.616,25.421,13.633c0.875,2.201,1.688,6.59,2.21,9.409c1.755,9.477,4.401,23.773,17.302,23.282 c0.025-0.001,0.05-0.002,0.076-0.002c2.349,0,4.211,4.377,5.23,8.643h-55.418c-2.469,0-4.708,1.205-6.104,3.114H30.229 c-0.115-0.072-0.226-0.147-0.345-0.213c-1.163-0.638-4.7-3.277-5.188-5.689c-0.075-0.368-0.302-1.491,1.425-3.672 c2.923-3.692,5.246-4.907,7.937-6.316c6.07-3.176,10.867-6.586,12.796-18.928c0.645-4.133-2.181-8.007-6.314-8.653 c-4.124-0.645-8.006,2.181-8.653,6.314c-0.903,5.781-1.506,6.096-4.851,7.847c-3.32,1.737-7.869,4.116-12.791,10.334 c-5.035,6.361-5.169,12.256-4.395,16.081c0.205,1.015,0.509,1.972,0.86,2.894h-0.615c-2.177,0-4.249,0.937-5.687,2.571 c-1.438,1.634-2.104,3.808-1.826,5.967l45.131,351.43c0.485,3.779,3.702,6.61,7.512,6.61h32.687c0.007,0,0.014,0.001,0.021,0.001 c0.005,0,0.01-0.001,0.015-0.001h158.048c0.005,0,0.01,0.001,0.015,0.001c0.007,0,0.014-0.001,0.021-0.001h45.819 c0.301,0,0.595-0.022,0.887-0.057h164.769c3.903,0,7.167-2.967,7.54-6.851l29.15-304.131h7.707c2.368,0,4.599-1.108,6.031-2.993 C509.369,196.083,509.837,193.636,509.202,191.354z M413.435,22.328l5.757,5.757l-42.825,42.979 c-1.414,1.42-2.209,3.343-2.209,5.346v65.895h-8.141l-0.001-72.411L413.435,22.328z M61.889,496.852L61.889,496.852 L18.704,160.569h17.447l43.185,336.283H61.889z M94.608,496.852L94.608,496.852L51.423,160.569h42.593l23.859,336.283H94.608z M159.346,496.851h-26.284l-23.859-336.283h50.143V496.851z M174.494,496.852L174.494,496.852V160.569h50.251l-23.859,336.283 H174.494z M285.259,496.793L285.259,496.793L270.24,340.094c-0.4-4.164-4.105-7.223-8.262-6.817 c-4.165,0.4-7.217,4.099-6.817,8.263l14.885,155.311h-15.435l8.257-64.297c0.532-4.149-2.398-7.944-6.548-8.477 c-4.152-0.539-7.945,2.398-8.477,6.547l-8.505,66.227h-23.267l20.993-295.891h4.622l7.422,77.427 c0.399,4.164,4.094,7.219,8.263,6.817c4.164-0.4,7.216-4.099,6.817-8.263l-7.279-75.951h71.72 c-7.211,17.061-18.087,53.853-18.087,120.581c0,49.33,19.262,68.995,37.889,88.013c18.708,19.099,36.413,37.215,38.031,87.209 H285.259z M401.61,496.794L401.61,496.794c-1.77-56.332-23.276-78.328-42.358-97.808c-18.009-18.387-33.563-34.267-33.563-77.414 c0-75.653,14.45-110.494,19.652-120.581h33.114c-7.21,17.061-18.087,53.853-18.087,120.581c0,49.33,19.262,68.995,37.889,88.013 c18.708,19.099,36.413,37.215,38.031,87.209H401.61z M451.181,491.007c-3.018-52.079-23.688-73.223-42.1-92.021 c-18.01-18.387-33.563-34.267-33.563-77.414c0-75.653,14.45-110.494,19.652-120.581h83.808L451.181,491.007z"/> </g> </g> </g>
</svg>